<svg version="1.1" xmlns="http://www.w3.org/2000/svg" xmlns:xlink="http://www.w3.org/1999/xlink" x="0px" y="0px" viewBox="0 0 1150 600" style="enable-background:new 0 0 1150 600;" xml:space="preserve"><style type="text/css">.st0{fill-rule:evenodd;clip-rule:evenodd;fill:#929496;}
	.st1{fill-rule:evenodd;clip-rule:evenodd;}
	.st2{fill-rule:evenodd;clip-rule:evenodd;fill:#BBBCBE;}
	.st3{font-family:'NeueHaasUnicaW1G-Regular';}
	.st4{font-size:17.4273px;}
	.st5{font-size:17.4277px;}
	.st6{display:none;}
	.st7{display:inline;fill-rule:evenodd;clip-rule:evenodd;fill:#00ACEB;}
	.st8{display:inline;fill-rule:evenodd;clip-rule:evenodd;fill:#51A291;}
	.st9{display:inline;fill-rule:evenodd;clip-rule:evenodd;fill:#8ED6F5;}
	
		.st10{display:inline;fill-rule:evenodd;clip-rule:evenodd;fill:none;stroke:#A4C1D0;stroke-width:1.5001;stroke-miterlimit:22.9256;}
	.st11{display:inline;fill-rule:evenodd;clip-rule:evenodd;fill:#A4C1D0;}
	.st12{display:inline;}
	
		.st13{display:inline;fill-rule:evenodd;clip-rule:evenodd;fill:none;stroke:#A4C1D0;stroke-width:7.9999;stroke-linecap:round;stroke-linejoin:round;stroke-miterlimit:22.9256;}
	.st14{display:inline;fill-rule:evenodd;clip-rule:evenodd;fill:#839BA8;}
	
		.st15{display:inline;fill-rule:evenodd;clip-rule:evenodd;fill:none;stroke:#839BA8;stroke-width:1.5001;stroke-miterlimit:22.9256;}</style><g id="circuito"> <polygon class="st0" points="603,309.1 550.6,283.6 498.2,258.1 505.6,246.5 513,235 558,272 	"></polygon> <g> <path style="stroke-width: 6; stroke:#000;" class="st1" d="M239.8,108.6l812.5,53.9l0.3,0.1c4.4,0.7,6.7,0.2,10.6,3.2c6.6,5.1,6.2,14.3,4.7,21.6
 c-2.2,10.5-5.3,20.7-8.8,30.8c-0.6,1.7-2.2,6.7-1.6,8.4c0.1,0.4,0.8,0.8,1.1,1c10.5,5.6,12.5,14.1,7,24.4
 c-4.1,7.7-7.9,14.7-13.9,21.1c-9.1,9.7-21,15-34.4,14c-9.9-0.8-21.1-2.2-31-1c-5.7,0.7-10.5,2.3-13.1,7.9c-4.4,9.3-6,20,2.3,27.6
 c5.1,4.7,11.1,8.6,16.9,12.4c5.1,3.4,11,6.7,15.5,10.9c11.9,11,8.7,24.9-5.4,31.8c-5.7,2.8-11.2,5.7-16.9,8.5
 c-10.4,5.2-20.8,10.2-31.4,15.2c-29,13.6-58.6,26.3-88.8,37.2c-47.3,17-95.3,32.1-143.6,45.9c-9.5,2.7-19,5.6-28.8,7.1
 c-12.5,1.9-25.1,3-37.7,3.6c-14.3,0.8-28.7,1-43,0.7c-17.3-0.4-34.5-2-51.4-6.1c-13.3-3.2-25.9-8-38.3-13.7
 c-7.9-3.6-15.7-7.6-23.6-11.3c-9.3-4.5-18.8-8.6-28.6-12.2c-20.8-7.7-39-6.8-60.7-7.1c-24.8-0.3-49.6-0.4-74.4-0.7
 c-22.1-0.2-44.2-0.4-66.3-1.3c-18.9-0.8-38.3-2.3-56.7-7c-10.2-2.6-20.2-6-30.2-9.2c-7.5-2.4-15.6-4.9-23.5-5.5
 c-15-1.1-30,2.8-45.2,1.1c-21.8-2.4-30.8-16.1-30.6-37.2c0.4-31.3,28.5-51.4,55.7-60c11-3.4,23-4.8,34.5-3.7
 c6.1,0.6,12.2,1.3,17.8,3.9c13.1,6.2,22.6,15.5,32.4,25.8c8.9,9.4,16.3,15.7,29.8,16.1c13.8,0.4,35.9-11.2,47.4-18.6
 c9.2-6,17.5-9.8,28.6-10.7c19.1-1.7,38,6.4,53.9,16.4c21.6,13.6,43.2,27.3,64.9,40.7c9.5,5.8,19,11.6,28.7,17.3
 c7.1,4.2,14.2,8.3,21.6,12c27.3,13.8,52.8,23.4,83.8,17.3c14.9-2.9,49.9-10.9,59-23.4c3.1-4.3,6.7-8.1,8.8-13.1
 c3.4-8.3,3.6-19.9,3.5-28.8c-0.1-11.6,1.1-25.3,9.8-33.9c5.6-5.5,11.5-6.8,18-10.5c5-2.9,13.7-7.5,16.4-12.7
 c3.6-6.9-9.5-15.3-14.2-18.2c-72.4-44.9-144.4-90.3-216.7-135.3l-0.2-0.1l-0.2-0.2c-4-3-9.6-5.4-14.3-7.3
 c-13.5-5.3-28.1-7.7-42.6-7.9c-15.6-0.2-30.9,2.1-45.7,6.8c-5.1,1.6-10,3.5-14.9,5.6c-3.3,1.4-6.5,3-9.9,4.3c-2,0.8-4,2.3-5.8,3.4
 c-3.4,2.2-6.8,4.3-10.4,6c-12,5.7-25.5,7.2-38.6,6.6c-11.4-0.5-22.8-4.9-32.5-10.8c-9.8-5.9-19.1-12.6-28-19.7
 c-4.1-3.3-8.1-6.6-12-10.1c-4.9-4.5-8.2-11.9-6.9-18.7c1.7-9.2,8.4-14.2,17.3-15.6C227.8,107.3,233.7,108.1,239.8,108.6
 L239.8,108.6z M473,155.3c72.1,45.1,144.2,90.3,216.5,135.1c6.8,4.2,14.7,10.1,18.5,17.4c2.9,5.5,3,11.3,0.1,16.9
 c-4.3,8.1-13.5,13.2-21.1,17.6c-4.7,2.7-11.6,4.7-15.4,8.5c-5.8,5.8-6.3,17.5-6.2,25.1c0.1,10.7-0.3,23.5-4.4,33.5
 c-2.7,6.5-6.3,10.3-10.2,15.7c-11.8,16.3-48.1,24.6-66.6,28.2c-34.2,6.7-61.7-3.2-91.7-18.4c-7.5-3.8-15-8.1-22.3-12.4
 c-9.7-5.7-19.3-11.5-28.9-17.4c-21.8-13.4-43.4-27.1-65-40.7c-13.4-8.4-30-16-46.2-14.6c-9.1,0.8-15.5,4-23,8.8
 c-13.8,9-37.6,21-54.4,20.6c-17.2-0.5-27.2-8.1-38.4-19.9c-8.7-9.2-17.2-17.7-28.8-23.2c-4-1.9-9.3-2.4-13.7-2.8
 c-9.8-0.9-20.2,0.3-29.7,3.2c-21.8,6.8-46.8,22.9-47.2,48.4c-0.2,15,4.5,23.2,19.6,24.8c14.6,1.6,29.9-2.3,44.7-1.2
 c8.8,0.6,17.9,3.4,26.3,6c9.8,3.1,19.6,6.4,29.6,9c17.5,4.4,36.2,5.9,54.2,6.6c21.9,0.9,44,1.1,65.9,1.3
 c24.8,0.3,49.6,0.4,74.4,0.7c23.6,0.3,42-0.6,64.8,7.8c10.1,3.7,19.9,8,29.6,12.6c7.8,3.7,15.5,7.7,23.4,11.2
 c11.8,5.4,23.4,9.9,36.1,12.9c15.9,3.9,32.4,5.3,48.8,5.7c14,0.3,28.1,0.1,42.1-0.6c12.2-0.7,24.5-1.7,36.6-3.5
 c9.4-1.4,18.2-4.1,27.3-6.7c48-13.7,95.9-28.8,142.9-45.7c29.8-10.7,59.1-23.3,87.7-36.7c10.4-4.9,20.8-9.9,31.1-15.1
 c5.7-2.8,11.3-5.7,16.9-8.5c6.7-3.3,7.8-6.9,2.5-11.8c-1.5-1.4-3.6-2.8-5.3-3.9c-2.9-2-5.8-3.9-8.7-5.8
 c-6.2-4.1-12.9-8.5-18.4-13.5c-12.5-11.4-12-27.4-5.1-41.9c4.5-9.5,12.6-13.5,22.7-14.8c10.5-1.3,22.8,0.1,33.5,0.9
 c9.8,0.7,17.9-3.1,24.5-10.2c5.3-5.7,8.5-11.8,12.1-18.5c2.4-4.5,2.3-5.5-2-7.8c-3.3-1.7-5.9-4.5-7-8.1c-1.6-5.1,0-11.3,1.7-16.2
 c3.3-9.5,6.4-19.4,8.4-29.3c0.3-1.5,1.5-8.2-0.2-9.5c-0.8-0.6-3.4-0.6-4.7-0.8l-812.1-53.9c-5-0.4-10.5-1.2-15.5-0.5
 c-3.7,0.5-6.4,1.8-7.1,5.7c-0.5,2.6,1.4,5.8,3.2,7.5c11.1,10.2,25.1,20.6,37.9,28.3c7.9,4.8,17.4,8.6,26.7,9
 c11.1,0.5,22.6-0.6,32.8-5.4c3.1-1.5,6-3.3,8.9-5.2c2.5-1.7,5.1-3.5,8-4.6c3.2-1.3,6.4-2.8,9.5-4.2c5.3-2.3,10.6-4.3,16-6.1
 c16.1-5.2,32.7-7.6,49.6-7.4c15.9,0.2,32.1,2.9,46.9,8.7C461.4,148.8,468.2,151.9,473,155.3z"></path> </g> </g> <g id="curve" style="display: none;"> <g> <path class="st2" d="M745,327.1c11.7,0,21.2-9.5,21.2-21.2c0-11.7-9.5-21.2-21.2-21.2c-11.7,0-21.2,9.5-21.2,21.2
 C723.7,317.6,733.3,327.1,745,327.1z"></path> <text transform="matrix(1 0 0 1 741.2863 311.8001)" class="st3 st4">1</text> </g> <g> <path class="st2" d="M619.8,361.5c11.7,0,21.2-9.5,21.2-21.2s-9.5-21.2-21.2-21.2c-11.7,0-21.2,9.5-21.2,21.2
 S608.1,361.5,619.8,361.5z"></path> <text transform="matrix(1 0 0 1 615.2414 346.2669)" class="st3 st4">2</text> </g> <g> <path class="st2" d="M687.1,452.7c11.7,0,21.2-9.5,21.2-21.2c0-11.7-9.5-21.2-21.2-21.2c-11.7,0-21.2,9.5-21.2,21.2
 C665.9,443.2,675.4,452.7,687.1,452.7z"></path> <text transform="matrix(1 0 0 1 682.6349 437.4134)" class="st3 st4">3</text> </g> <g> <path class="st2" d="M356.4,326.6c11.7,0,21.2-9.5,21.2-21.2c0-11.7-9.5-21.2-21.2-21.2c-11.7,0-21.2,9.5-21.2,21.2
 C335.2,317.1,344.7,326.6,356.4,326.6z"></path> <text transform="matrix(1 0 0 1 351.9436 311.2718)" class="st3 st4">4</text> </g> <g> <path class="st2" d="M257.4,348c11.7,0,21.2-9.5,21.2-21.2c0-11.7-9.5-21.2-21.2-21.2c-11.7,0-21.2,9.5-21.2,21.2
 C236.2,338.5,245.7,348,257.4,348z"></path> <text transform="matrix(1 0 0 1 252.8723 332.5238)" class="st3 st4">5</text> </g> <g> <path class="st2" d="M156,306.1c11.7,0,21.2-9.5,21.2-21.2c0-11.7-9.5-21.2-21.2-21.2s-21.2,9.5-21.2,21.2
 C134.8,296.5,144.4,306.1,156,306.1z"></path> <text transform="matrix(1 0 0 1 151.4514 290.7171)" class="st3 st4">6</text> </g> <g> <path class="st2" d="M57.7,446.7c11.7,0,21.2-9.5,21.2-21.2c0-11.7-9.5-21.2-21.2-21.2s-21.2,9.5-21.2,21.2
 C36.5,437.2,46,446.7,57.7,446.7z"></path> <text transform="matrix(1 0 0 1 53.2639 431.3763)" class="st3 st4">7</text> </g> <g> <path class="st2" d="M112.1,472.7c11.7,0,21.2-9.5,21.2-21.2c0-11.7-9.5-21.2-21.2-21.2c-11.7,0-21.2,9.5-21.2,21.2
 C90.9,463.2,100.4,472.7,112.1,472.7z"></path> <text transform="matrix(1 0 0 1 107.5715 457.3705)" class="st3 st4">8</text> </g> <g> <path class="st2" d="M464,507.4c11.7,0,21.2-9.5,21.2-21.2S475.7,465,464,465c-11.7,0-21.2,9.5-21.2,21.2S452.4,507.4,464,507.4z"></path> <text transform="matrix(1 0 0 1 459.8762 492.0872)" class="st3 st4">9</text> </g> <g> <path class="st2" d="M605.1,570.4c11.7,0,21.2-9.5,21.2-21.2c0-11.7-9.5-21.2-21.2-21.2s-21.2,9.5-21.2,21.2
 C583.9,560.9,593.5,570.4,605.1,570.4z"></path> <text transform="matrix(1 0 0 1 594.7961 555.1087)"><tspan x="0" y="0" class="st3 st4">1</tspan><tspan x="8.9" y="0" class="st3 st4">0</tspan></text> </g> <g> <path class="st2" d="M1054.7,390.7c11.7,0,21.2-9.5,21.2-21.2c0-11.7-9.5-21.2-21.2-21.2s-21.2,9.5-21.2,21.2
 C1033.5,381.2,1043,390.7,1054.7,390.7z"></path> <text transform="matrix(1 0 0 1 1045.8352 375.3421)"><tspan x="0" y="0" class="st3 st4">1</tspan><tspan x="8.9" y="0" class="st3 st4">1</tspan></text> </g> <g> <path class="st2" d="M919.2,309.3c11.7,0,21.2-9.5,21.2-21.2c0-11.7-9.5-21.2-21.2-21.2s-21.2,9.5-21.2,21.2
 C898,299.8,907.5,309.3,919.2,309.3z"></path> <text transform="matrix(1 0 0 1 908.9894 294.097)"><tspan x="0" y="0" class="st3 st4">1</tspan><tspan x="8.9" y="0" class="st3 st4">2</tspan></text> </g> <g> <path class="st2" d="M1061.3,328.5c11.7,0,21.2-9.5,21.2-21.2c0-11.7-9.5-21.2-21.2-21.2c-11.7,0-21.2,9.5-21.2,21.2
 C1040.1,319,1049.6,328.5,1061.3,328.5z"></path> <text transform="matrix(1 0 0 1 1051.093 313.2005)"><tspan x="0" y="0" class="st3 st4">1</tspan><tspan x="8.9" y="0" class="st3 st4">3</tspan></text> </g> <g> <path class="st2" d="M1103.1,263c11.7,0,21.2-9.5,21.2-21.2c0-11.7-9.5-21.2-21.2-21.2c-11.7,0-21.2,9.5-21.2,21.2
 C1081.9,253.5,1091.5,263,1103.1,263z"></path> <text transform="matrix(1 0 0 1 1092.7219 247.7103)"><tspan x="0" y="0" class="st3 st4">1</tspan><tspan x="8.9" y="0" class="st3 st4">4</tspan></text> </g> <g> <path class="st2" d="M1009.9,242.9c11.7,0,21.2-9.5,21.2-21.2s-9.5-21.2-21.2-21.2c-11.7,0-21.2,9.5-21.2,21.2
 S998.2,242.9,1009.9,242.9z"></path> <text transform="matrix(1 0 0 1 999.715 227.4486)"><tspan x="0" y="0" class="st3 st5">1</tspan><tspan x="8.9" y="0" class="st3 st5">5</tspan></text> </g> <g> <path class="st2" d="M1090,166.2c11.7,0,21.2-9.5,21.2-21.2s-9.5-21.2-21.2-21.2s-21.2,9.5-21.2,21.2S1078.3,166.2,1090,166.2z"></path> <text transform="matrix(1 0 0 1 1079.7727 150.8372)"><tspan x="0" y="0" class="st3 st5">1</tspan><tspan x="8.9" y="0" class="st3 st5">6</tspan></text> </g> <g> <path class="st2" d="M169.3,143c11.7,0,21.2-9.5,21.2-21.2s-9.5-21.2-21.2-21.2c-11.7,0-21.2,9.5-21.2,21.2S157.7,143,169.3,143z"></path> <text transform="matrix(1 0 0 1 159.0939 127.6947)"><tspan x="0" y="0" class="st3 st5">1</tspan><tspan x="8.9" y="0" class="st3 st5">7</tspan></text> </g> <g> <path class="st2" d="M280.4,235.7c11.7,0,21.2-9.5,21.2-21.2c0-11.7-9.5-21.2-21.2-21.2c-11.7,0-21.2,9.5-21.2,21.2
 C259.2,226.1,268.8,235.7,280.4,235.7z"></path> <text transform="matrix(1 0 0 1 270.1985 220.3206)"><tspan x="0" y="0" class="st3 st5">1</tspan><tspan x="8.9" y="0" class="st3 st5">8</tspan></text> </g> <g> <path class="st2" d="M391.9,225.2c11.7,0,21.2-9.5,21.2-21.2c0-11.7-9.5-21.2-21.2-21.2c-11.7,0-21.2,9.5-21.2,21.2
 C370.7,215.6,380.2,225.2,391.9,225.2z"></path> <text transform="matrix(1 0 0 1 381.6516 209.8206)"><tspan x="0" y="0" class="st3 st5">1</tspan><tspan x="8.9" y="0" class="st3 st5">9</tspan></text> </g> </g> <g id="settori" class="st6"> <path class="st7" style="stroke-width: 6; stroke: #00ACEB;" d="M181.6,421.5l0.4-3c-7.4-2.3-15.2-4.5-22.8-5.1c-14.9-1.1-29.8,2.8-44.9,1.2c-17.9-1.9-24-12.5-23.8-29.5
 c0.3-27.7,26.6-45.3,50.4-52.8c10-3.1,21-4.4,31.5-3.4c5.1,0.5,10.6,1,15.2,3.2c12.2,5.8,21,14.6,30.2,24.2
 c10.5,11,19.4,18,35.2,18.4c15.6,0.4,38.8-11.4,51.7-19.8c8.1-5.3,15.3-8.7,25.1-9.6c17.3-1.5,34.8,6.2,49.1,15.3
 c21.6,13.6,43.2,27.3,65,40.7c9.5,5.9,19.1,11.7,28.8,17.4c7.2,4.2,14.5,8.4,22,12.2c29.1,14.7,55.7,24.4,88.7,17.9
 c17.4-3.4,52.9-11.6,63.7-26.4c3.6-4.9,7.3-9,9.7-14.7c3.8-9.4,4.2-21.7,4.1-31.7c-0.1-9.3,0.6-21.6,7.5-28.5
 c4.7-4.7,10.9-6.1,16.4-9.2c6.7-3.8,15.7-8.7,19.3-15.8c2.2-4.2,2-8.4-0.1-12.6c-3.3-6.4-10.8-11.9-16.8-15.6
 c-50.7-31.4-101.2-63-151.8-94.6l-1.7,2.4c50.6,31.7,101.2,63.3,151.9,94.7c3.9,2.4,7.7,5,11,8.2c4.3,4.2,8,10.1,4.9,16.1
 c-3.3,6.4-12.1,11.1-18.2,14.6c-5.7,3.3-12.3,5-17,9.7c-7.6,7.6-8.5,20.4-8.4,30.6c0.1,9.7-0.1,21.5-3.8,30.6
 c-2.3,5.5-5.9,9.4-9.3,14.1c-10.1,13.9-45.3,22-61.9,25.2c-32.1,6.3-58.5-3.3-86.8-17.7c-7.4-3.8-14.7-7.9-21.8-12.1
 c-9.7-5.7-19.2-11.5-28.7-17.3c-21.8-13.4-43.3-27.1-64.9-40.7c-14.9-9.4-32.9-17.3-51-15.7c-10.2,0.9-18,4.5-26.5,10
 c-12.4,8.1-35.1,19.7-50,19.3c-15-0.4-23.3-7.2-33.1-17.5c-9.4-9.9-18.6-18.9-31-24.8c-5-2.4-10.8-3-16.2-3.5
 c-10.9-1-22.2,0.3-32.6,3.5c-25.2,7.9-52.1,26.5-52.5,55.6c-0.2,18.7,7.1,30.4,26.4,32.5c7.2,0.8,14.5,0.2,21.8-0.4
 c7.7-0.6,15.5-1.3,23.3-0.8C166.6,417,174.2,419.2,181.6,421.5z"></path> <path class="st8" style="stroke-width: 6; stroke: #51A291;" d="M997.2,163.5l-0.2,3l-757.7-50.3c-5.5-0.4-11-1.3-16.5-0.4c-5.6,0.8-9.9,3.4-11,9.4c-0.8,4.2,1.6,8.8,4.6,11.7
 l0.1,0.1c11.6,10.7,25.2,20.7,38.7,28.9c8.6,5.2,18.8,9.2,28.9,9.7c11.9,0.5,24.1-0.7,35-5.9c3.3-1.6,6.4-3.5,9.5-5.5
 c2.2-1.5,4.6-3.2,7.1-4.1c3.3-1.3,6.4-2.8,9.6-4.2c5.1-2.2,10.3-4.2,15.6-5.9c15.5-5,31.8-7.4,48.1-7.2c15.4,0.2,31,2.8,45.3,8.4
 c5.2,2.1,11.3,4.8,15.9,8.1l0.1,0.1l0.1,0.1c21.6,13.5,43.2,27,64.8,40.5l-1.7,2.4c-21.6-13.5-43.2-27-64.8-40.5l-0.1-0.1l-0.1-0.1
 c-4.5-3.3-10.2-5.8-15.3-7.8c-14-5.5-29.2-8-44.2-8.2c-16-0.2-32,2.2-47.2,7.1c-5.2,1.7-10.3,3.6-15.3,5.8c-3.2,1.4-6.4,3-9.7,4.3
 c-2.4,1-4.5,2.5-6.6,3.9c-3.2,2.1-6.4,4.1-9.8,5.7c-11.3,5.4-24,6.7-36.4,6.2c-10.6-0.5-21.3-4.7-30.3-10.1
 c-9.6-5.8-18.7-12.4-27.5-19.4c-4-3.2-7.9-6.4-11.7-9.9c-3.7-3.5-6.5-9.3-5.5-14.4c1.3-7.2,6.5-10.8,13.5-11.8
 c5.6-0.8,11.5,0,17.1,0.4L997.2,163.5z"></path> <path class="st9" style="stroke-width: 6; stroke: #8ED6F5;" d="M997.2,163.5l-0.2,3l54.5,3.6l0.1,0c2.4,0.3,5,0.1,7,1.7c3.7,2.9,2.7,10,1.9,14.1c-2.1,10.1-5.2,20.1-8.6,29.9
 c-1.3,3.7-3,9.4-1.7,13.3c0.8,2.4,2.6,4.2,4.8,5.4c2.6,1.4,5.1,3,5.8,6.1c0.7,2.9-0.6,5.5-1.9,8c-3.8,7.1-7.2,13.6-12.8,19.5
 c-7.6,8.1-17.1,12.4-28.3,11.6c-10.5-0.8-22.1-2.2-32.5-0.9c-8.5,1.1-15.3,4.2-19,12.2c-5.9,12.5-6.9,26.5,4.1,36.5
 c5.4,4.9,11.7,9.1,17.8,13.1c2.9,1.9,5.9,3.9,8.8,5.8c2,1.4,4,2.7,5.8,4.3c3.1,2.8,5.7,6.6,4.6,11c-1,4.1-4.7,6.6-8.2,8.4
 c-5.7,2.8-11.3,5.7-16.9,8.5c-10.3,5.2-20.7,10.2-31.2,15.1c-28.8,13.5-58.2,26.1-88.1,36.9c-47.1,17-95,32-143.2,45.8
 c-9.2,2.6-18.4,5.4-27.9,6.9c-12.3,1.9-24.6,2.9-37,3.6c-14.1,0.8-28.3,1-42.4,0.6c-16.7-0.4-33.5-1.9-49.7-5.8
 c-12.8-3.1-24.9-7.7-36.9-13.2c-7.9-3.6-15.6-7.5-23.4-11.3c-9.6-4.6-19.3-8.8-29.2-12.4c-21.8-8-40.5-7.3-63.2-7.5
 c-24.8-0.3-49.6-0.4-74.4-0.7c-22-0.2-44.1-0.4-66.1-1.3c-18.4-0.8-37.2-2.2-55.1-6.7c-10.1-2.6-19.9-5.9-29.8-9.1
 c-0.8-0.3-1.6-0.5-2.4-0.8l-0.4,3c0.6,0.2,1.3,0.4,1.9,0.6c10,3.1,19.9,6.5,30,9.1c18.1,4.6,37.1,6.1,55.7,6.8
 c22,0.9,44.1,1.1,66.2,1.3c24.8,0.3,49.6,0.4,74.4,0.7c22.1,0.3,41-0.5,62.2,7.4c9.8,3.6,19.5,7.8,28.9,12.3
 c7.8,3.7,15.6,7.7,23.5,11.3c12.1,5.5,24.5,10.2,37.4,13.4c16.5,4,33.5,5.5,50.4,5.9c14.2,0.3,28.5,0.1,42.7-0.7
 c12.5-0.7,24.9-1.7,37.3-3.6c9.6-1.5,18.9-4.3,28.2-6.9c48.2-13.8,96.1-28.8,143.4-45.8c30.1-10.8,59.5-23.4,88.4-37
 c10.5-4.9,20.9-10,31.3-15.1c5.6-2.8,11.2-5.7,16.9-8.5c11.2-5.5,13.8-15.5,4.3-24.2c-4.4-4-10-7.2-14.9-10.5
 c-6-4-12.1-7.9-17.4-12.8c-10-9.1-8.7-21.8-3.4-33.1c3.3-7.1,9.4-9.6,16.7-10.5c10.5-1.3,21.4,0.2,32,1c12,0.9,22.5-3.9,30.6-12.5
 c5.6-6,9.4-12.9,13.2-20.2c4.3-8,3.1-13.7-5.1-18.1c-1.5-0.8-2.8-2-3.4-3.7c-1-3.1,0.6-8.3,1.7-11.4c3.5-9.9,6.5-20,8.7-30.2
 c1.1-5.4,2-13.2-3-17c-2.9-2.2-5.1-1.8-8.5-2.3l-0.1,0L997.2,163.5z"></path> </g> <g id="drs" class="st6"> <line class="st10" x1="121.7" y1="549" x2="157" y2="415.7"></line> <ellipse transform="matrix(0.2588 -0.9659 0.9659 0.2588 -286.7672 459.6597)" class="st11" cx="156.1" cy="416.7" rx="8.5" ry="8.5"></ellipse> <path class="st11" d="M171.8,518.6H90.1c-18.2,0-33.2,14.9-33.2,33.2l0,0c0,18.2,14.9,33.2,33.2,33.2h81.7
 c18.2,0,33.2-14.9,33.2-33.2l0,0C205,533.6,190,518.6,171.8,518.6z"></path> <g class="st12"> <path d="M119.4,533.2c0.7-0.1,1.5-0.2,2.4-0.2c1.6,0,2.8,0.4,3.5,1.1c0.8,0.7,1.2,1.7,1.2,3.1c0,1.4-0.4,2.6-1.2,3.4
 c-0.8,0.8-2.1,1.2-3.8,1.2c-0.8,0-1.5,0-2-0.1V533.2z M120.6,540.9c0.3,0.1,0.7,0.1,1.1,0.1c2.4,0,3.7-1.3,3.7-3.7
 c0-2-1.1-3.3-3.5-3.3c-0.6,0-1,0.1-1.3,0.1V540.9z"></path> <path d="M130.3,533.2c0.6-0.1,1.4-0.2,2.1-0.2c1.2,0,2,0.2,2.5,0.7c0.4,0.4,0.7,1,0.7,1.6c0,1.1-0.7,1.9-1.6,2.2v0
 c0.7,0.2,1.1,0.8,1.3,1.7c0.3,1.2,0.5,2,0.7,2.4h-1.2c-0.1-0.2-0.3-1-0.6-2.1c-0.3-1.2-0.7-1.6-1.7-1.7h-1.1v3.8h-1.1V533.2z
 M131.4,537.1h1.1c1.2,0,2-0.7,2-1.6c0-1.1-0.8-1.6-2-1.6c-0.5,0-0.9,0.1-1.1,0.1V537.1z"></path> <path d="M139.3,540.4c0.5,0.3,1.2,0.6,2,0.6c1.1,0,1.8-0.6,1.8-1.5c0-0.8-0.5-1.3-1.6-1.7c-1.4-0.5-2.3-1.2-2.3-2.5
 c0-1.4,1.1-2.4,2.8-2.4c0.9,0,1.5,0.2,1.9,0.4l-0.3,0.9c-0.3-0.2-0.9-0.4-1.6-0.4c-1.2,0-1.6,0.7-1.6,1.3c0,0.8,0.5,1.2,1.7,1.7
 c1.5,0.6,2.2,1.3,2.2,2.5c0,1.3-1,2.5-3,2.5c-0.8,0-1.7-0.2-2.2-0.6L139.3,540.4z"></path> </g> <g class="st12"> <path d="M91,547.9c0.7-0.1,1.5-0.2,2.4-0.2c1.6,0,2.8,0.4,3.5,1.1c0.8,0.7,1.2,1.7,1.2,3.1c0,1.4-0.4,2.6-1.2,3.4
 c-0.8,0.8-2.1,1.2-3.8,1.2c-0.8,0-1.5,0-2-0.1V547.9z M92.1,555.5c0.3,0.1,0.7,0.1,1.1,0.1c2.4,0,3.7-1.3,3.7-3.7
 c0-2-1.1-3.3-3.5-3.3c-0.6,0-1,0.1-1.3,0.1V555.5z"></path> <path d="M106.3,552.3h-3.4v3.1h3.8v0.9h-4.9v-8.7h4.7v0.9h-3.6v2.7h3.4V552.3z"></path> <path d="M112.3,548.7h-2.6v-1h6.4v1h-2.6v7.7h-1.1V548.7z"></path> <path d="M123.8,552.3h-3.4v3.1h3.8v0.9h-4.9v-8.7h4.7v0.9h-3.6v2.7h3.4V552.3z"></path> <path d="M133.9,556.1c-0.4,0.2-1.2,0.4-2.3,0.4c-2.4,0-4.3-1.5-4.3-4.4c0-2.7,1.8-4.6,4.5-4.6c1.1,0,1.8,0.2,2.1,0.4l-0.3,0.9
 c-0.4-0.2-1-0.4-1.7-0.4c-2,0-3.4,1.3-3.4,3.6c0,2.1,1.2,3.5,3.3,3.5c0.7,0,1.4-0.1,1.8-0.4L133.9,556.1z"></path> <path d="M139.6,548.7H137v-1h6.4v1h-2.6v7.7h-1.1V548.7z"></path> <path d="M147.7,547.7v8.7h-1.1v-8.7H147.7z"></path> <path d="M159.4,552c0,3-1.8,4.6-4,4.6c-2.3,0-3.9-1.8-3.9-4.4c0-2.8,1.7-4.6,4-4.6C157.8,547.6,159.4,549.4,159.4,552z
 M152.6,552.1c0,1.9,1,3.5,2.8,3.5c1.8,0,2.8-1.6,2.8-3.6c0-1.7-0.9-3.5-2.8-3.5C153.6,548.5,152.6,550.2,152.6,552.1z"></path> <path d="M163.1,556.4v-8.7h1.2l2.8,4.4c0.6,1,1.1,1.9,1.6,2.8l0,0c-0.1-1.2-0.1-2.2-0.1-3.6v-3.6h1.1v8.7h-1.1l-2.8-4.4
 c-0.6-1-1.2-2-1.6-2.9l0,0c0.1,1.1,0.1,2.1,0.1,3.6v3.7H163.1z"></path> </g> <g class="st12"> <path d="M107.6,570.4l4.8-7v0H108v-0.9h5.9v0.7l-4.8,7v0h4.8v0.9h-6.3V570.4z"></path> <path d="M124.7,566.6c0,3-1.8,4.6-4,4.6c-2.3,0-3.9-1.8-3.9-4.4c0-2.8,1.7-4.6,4-4.6C123.2,562.2,124.7,564.1,124.7,566.6z
 M118,566.8c0,1.9,1,3.5,2.8,3.5c1.8,0,2.8-1.6,2.8-3.6c0-1.7-0.9-3.5-2.8-3.5C118.9,563.2,118,564.9,118,566.8z"></path> <path d="M128.4,571.1v-8.7h1.2l2.8,4.4c0.6,1,1.1,1.9,1.6,2.8l0,0c-0.1-1.2-0.1-2.2-0.1-3.6v-3.6h1.1v8.7h-1.1l-2.8-4.4
 c-0.6-1-1.2-2-1.6-2.9l0,0c0.1,1.1,0.1,2.1,0.1,3.6v3.7H128.4z"></path> <path d="M143.6,567h-3.4v3.1h3.8v0.9h-4.9v-8.7h4.7v0.9h-3.6v2.7h3.4V567z"></path> <path d="M152.5,563.7L152.5,563.7l-1.5,0.8l-0.2-0.9l1.8-1h1v8.4h-1.1V563.7z"></path> </g> <line class="st10" x1="986.8" y1="108.7" x2="996" y2="163.9"></line> <ellipse transform="matrix(2.690839e-002 -0.9996 0.9996 2.690839e-002 807.0869 1154.6913)" class="st11" cx="996.6" cy="162.8" rx="8.5" ry="8.5"></ellipse> <path class="st11" d="M1022.1,48.4h-81.7c-18.2,0-33.2,14.9-33.2,33.2l0,0c0,18.2,14.9,33.2,33.2,33.2h81.7
 c18.2,0,33.2-14.9,33.2-33.2l0,0C1055.3,63.4,1040.4,48.4,1022.1,48.4z"></path> <g class="st12"> <path d="M969.8,63c0.7-0.1,1.5-0.2,2.4-0.2c1.6,0,2.8,0.4,3.5,1.1c0.8,0.7,1.2,1.7,1.2,3.1c0,1.4-0.4,2.6-1.2,3.4
 c-0.8,0.8-2.1,1.2-3.8,1.2c-0.8,0-1.5,0-2-0.1V63z M970.9,70.6c0.3,0.1,0.7,0.1,1.1,0.1c2.4,0,3.7-1.3,3.7-3.7
 c0-2-1.1-3.3-3.5-3.3c-0.6,0-1,0.1-1.3,0.1V70.6z"></path> <path d="M980.6,63c0.6-0.1,1.4-0.2,2.1-0.2c1.2,0,2,0.2,2.5,0.7c0.4,0.4,0.7,1,0.7,1.6c0,1.1-0.7,1.9-1.6,2.2v0
 c0.7,0.2,1.1,0.8,1.3,1.7c0.3,1.2,0.5,2,0.7,2.4h-1.2c-0.1-0.2-0.3-1-0.6-2.1c-0.3-1.2-0.7-1.6-1.7-1.7h-1.1v3.8h-1.1V63z
 M981.7,66.9h1.1c1.2,0,2-0.7,2-1.6c0-1.1-0.8-1.6-2-1.6c-0.5,0-0.9,0.1-1.1,0.1V66.9z"></path> <path d="M989.6,70.2c0.5,0.3,1.2,0.6,2,0.6c1.1,0,1.8-0.6,1.8-1.5c0-0.8-0.5-1.3-1.6-1.7c-1.4-0.5-2.3-1.2-2.3-2.5
 c0-1.4,1.1-2.4,2.8-2.4c0.9,0,1.5,0.2,1.9,0.4l-0.3,0.9c-0.3-0.2-0.9-0.4-1.6-0.4c-1.2,0-1.6,0.7-1.6,1.3c0,0.8,0.5,1.2,1.7,1.7
 c1.5,0.6,2.2,1.3,2.2,2.5c0,1.3-1,2.5-3,2.5c-0.8,0-1.7-0.2-2.2-0.6L989.6,70.2z"></path> </g> <g class="st12"> <path d="M941.3,77.6c0.7-0.1,1.5-0.2,2.4-0.2c1.6,0,2.8,0.4,3.5,1.1c0.8,0.7,1.2,1.7,1.2,3.1c0,1.4-0.4,2.6-1.2,3.4
 c-0.8,0.8-2.1,1.2-3.8,1.2c-0.8,0-1.5,0-2-0.1V77.6z M942.4,85.3c0.3,0.1,0.7,0.1,1.1,0.1c2.4,0,3.7-1.3,3.7-3.7
 c0-2-1.1-3.3-3.5-3.3c-0.6,0-1,0.1-1.3,0.1V85.3z"></path> <path d="M956.6,82.1h-3.4v3.1h3.8v0.9h-4.9v-8.7h4.7v0.9h-3.6v2.7h3.4V82.1z"></path> <path d="M962.6,78.5H960v-1h6.4v1h-2.6v7.7h-1.1V78.5z"></path> <path d="M974.1,82.1h-3.4v3.1h3.8v0.9h-4.9v-8.7h4.7v0.9h-3.6v2.7h3.4V82.1z"></path> <path d="M984.2,85.9c-0.4,0.2-1.2,0.4-2.3,0.4c-2.4,0-4.3-1.5-4.3-4.4c0-2.7,1.8-4.6,4.5-4.6c1.1,0,1.8,0.2,2.1,0.4l-0.3,0.9
 c-0.4-0.2-1-0.4-1.7-0.4c-2,0-3.4,1.3-3.4,3.6c0,2.1,1.2,3.5,3.3,3.5c0.7,0,1.4-0.1,1.8-0.4L984.2,85.9z"></path> <path d="M989.9,78.5h-2.6v-1h6.4v1h-2.6v7.7h-1.1V78.5z"></path> <path d="M998.1,77.5v8.7h-1.1v-8.7H998.1z"></path> <path d="M1009.7,81.8c0,3-1.8,4.6-4,4.6c-2.3,0-3.9-1.8-3.9-4.4c0-2.8,1.7-4.6,4-4.6C1008.1,77.4,1009.7,79.2,1009.7,81.8z
 M1003,81.9c0,1.9,1,3.5,2.8,3.5c1.8,0,2.8-1.6,2.8-3.6c0-1.7-0.9-3.5-2.8-3.5C1003.9,78.3,1003,80,1003,81.9z"></path> <path d="M1013.4,86.2v-8.7h1.2l2.8,4.4c0.6,1,1.1,1.9,1.6,2.8l0,0c-0.1-1.2-0.1-2.2-0.1-3.6v-3.6h1.1v8.7h-1.1l-2.8-4.4
 c-0.6-1-1.2-2-1.6-2.9l0,0c0.1,1.1,0.1,2.1,0.1,3.6v3.7H1013.4z"></path> </g> <g class="st12"> <path d="M957.9,100.2l4.8-7v0h-4.4v-0.9h5.8v0.7l-4.8,7v0h4.8v0.9h-6.3V100.2z"></path> <path d="M975,96.4c0,3-1.8,4.6-4,4.6c-2.3,0-3.9-1.8-3.9-4.4c0-2.8,1.7-4.6,4-4.6C973.5,92,975,93.8,975,96.4z M968.3,96.6
 c0,1.9,1,3.5,2.8,3.5c1.8,0,2.8-1.6,2.8-3.6c0-1.7-0.9-3.5-2.8-3.5C969.2,92.9,968.3,94.6,968.3,96.6z"></path> <path d="M978.7,100.8v-8.7h1.2l2.8,4.4c0.6,1,1.1,1.9,1.6,2.8l0,0c-0.1-1.2-0.1-2.2-0.1-3.6v-3.6h1.1v8.7h-1.1l-2.8-4.4
 c-0.6-1-1.2-2-1.6-2.9l0,0c0.1,1.1,0.1,2.1,0.1,3.6v3.7H978.7z"></path> <path d="M994,96.8h-3.4v3.1h3.8v0.9h-4.9v-8.7h4.7v0.9h-3.6v2.7h3.4V96.8z"></path> <path d="M1000.4,100.8v-0.7l0.9-0.9c2.1-2,3.1-3.1,3.1-4.4c0-0.8-0.4-1.6-1.7-1.6c-0.8,0-1.4,0.4-1.8,0.7l-0.4-0.8
 c0.6-0.5,1.4-0.8,2.4-0.8c1.8,0,2.6,1.2,2.6,2.4c0,1.5-1.1,2.8-2.9,4.5l-0.7,0.6v0h3.8v0.9H1000.4z"></path> </g> <line class="st10" x1="147.5" y1="198.5" x2="217.8" y2="140.6"></line> <ellipse transform="matrix(0.8792 -0.4765 0.4765 0.8792 -40.8569 120.1632)" class="st11" cx="216.5" cy="140.6" rx="8.5" ry="8.5"></ellipse> <path class="st11" d="M129.2,171.3H47.5c-18.2,0-33.2,14.9-33.2,33.2l0,0c0,18.2,14.9,33.2,33.2,33.2h81.7
 c18.2,0,33.2-14.9,33.2-33.2l0,0C162.4,186.2,147.4,171.3,129.2,171.3z"></path> <g class="st12"> <path d="M76.8,185.9c0.7-0.1,1.5-0.2,2.4-0.2c1.6,0,2.8,0.4,3.5,1.1c0.8,0.7,1.2,1.7,1.2,3.1c0,1.4-0.4,2.6-1.2,3.4
 c-0.8,0.8-2.1,1.2-3.8,1.2c-0.8,0-1.5,0-2-0.1V185.9z M78,193.5c0.3,0.1,0.7,0.1,1.1,0.1c2.4,0,3.7-1.3,3.7-3.7
 c0-2-1.1-3.3-3.5-3.3c-0.6,0-1,0.1-1.3,0.1V193.5z"></path> <path d="M87.7,185.9c0.6-0.1,1.4-0.2,2.1-0.2c1.2,0,2,0.2,2.5,0.7c0.4,0.4,0.7,1,0.7,1.6c0,1.1-0.7,1.9-1.6,2.2v0
 c0.7,0.2,1.1,0.8,1.3,1.7c0.3,1.2,0.5,2,0.7,2.4h-1.2c-0.1-0.2-0.3-1-0.6-2.1c-0.3-1.2-0.7-1.6-1.7-1.7h-1.1v3.8h-1.1V185.9z
 M88.8,189.8h1.1c1.2,0,2-0.7,2-1.6c0-1.1-0.8-1.6-2-1.6c-0.5,0-0.9,0.1-1.1,0.1V189.8z"></path> <path d="M96.7,193c0.5,0.3,1.2,0.6,2,0.6c1.1,0,1.8-0.6,1.8-1.5c0-0.8-0.5-1.3-1.6-1.7c-1.4-0.5-2.3-1.2-2.3-2.5
 c0-1.4,1.1-2.4,2.8-2.4c0.9,0,1.5,0.2,1.9,0.4l-0.3,0.9c-0.3-0.2-0.9-0.4-1.6-0.4c-1.2,0-1.6,0.7-1.6,1.3c0,0.8,0.5,1.2,1.7,1.7
 c1.5,0.6,2.2,1.3,2.2,2.5c0,1.3-1,2.5-3,2.5c-0.8,0-1.7-0.2-2.2-0.6L96.7,193z"></path> </g> <g class="st12"> <path d="M48.4,200.5c0.7-0.1,1.5-0.2,2.4-0.2c1.6,0,2.8,0.4,3.5,1.1c0.8,0.7,1.2,1.7,1.2,3.1c0,1.4-0.4,2.6-1.2,3.4
 c-0.8,0.8-2.1,1.2-3.8,1.2c-0.8,0-1.5,0-2-0.1V200.5z M49.5,208.2c0.3,0.1,0.7,0.1,1.1,0.1c2.4,0,3.7-1.3,3.7-3.7
 c0-2-1.1-3.3-3.5-3.3c-0.6,0-1,0.1-1.3,0.1V208.2z"></path> <path d="M63.7,205h-3.4v3.1h3.8v0.9h-4.9v-8.7h4.7v0.9h-3.6v2.7h3.4V205z"></path> <path d="M69.7,201.3H67v-1h6.4v1h-2.6v7.7h-1.1V201.3z"></path> <path d="M81.2,205h-3.4v3.1h3.8v0.9h-4.9v-8.7h4.7v0.9h-3.6v2.7h3.4V205z"></path> <path d="M91.3,208.8c-0.4,0.2-1.2,0.4-2.3,0.4c-2.4,0-4.3-1.5-4.3-4.4c0-2.7,1.8-4.6,4.5-4.6c1.1,0,1.8,0.2,2.1,0.4l-0.3,0.9
 c-0.4-0.2-1-0.4-1.7-0.4c-2,0-3.4,1.3-3.4,3.6c0,2.1,1.2,3.5,3.3,3.5c0.7,0,1.4-0.1,1.8-0.4L91.3,208.8z"></path> <path d="M97,201.3h-2.6v-1h6.4v1h-2.6v7.7H97V201.3z"></path> <path d="M105.1,200.4v8.7H104v-8.7H105.1z"></path> <path d="M116.8,204.6c0,3-1.8,4.6-4,4.6c-2.3,0-3.9-1.8-3.9-4.4c0-2.8,1.7-4.6,4-4.6C115.2,200.3,116.8,202.1,116.8,204.6z
 M110,204.8c0,1.9,1,3.5,2.8,3.5c1.8,0,2.8-1.6,2.8-3.6c0-1.7-0.9-3.5-2.8-3.5C111,201.2,110,202.9,110,204.8z"></path> <path d="M120.5,209.1v-8.7h1.2l2.8,4.4c0.6,1,1.1,1.9,1.6,2.8l0,0c-0.1-1.2-0.1-2.2-0.1-3.6v-3.6h1.1v8.7h-1.1l-2.8-4.4
 c-0.6-1-1.2-2-1.6-2.9l0,0c0.1,1.1,0.1,2.1,0.1,3.6v3.7H120.5z"></path> </g> <g class="st12"> <path d="M65,223.1l4.8-7v0h-4.4V215h5.9v0.7l-4.8,7v0h4.8v0.9H65V223.1z"></path> <path d="M82.1,219.3c0,3-1.8,4.6-4,4.6c-2.3,0-3.9-1.8-3.9-4.4c0-2.8,1.7-4.6,4-4.6C80.6,214.9,82.1,216.7,82.1,219.3z
 M75.4,219.4c0,1.9,1,3.5,2.8,3.5c1.8,0,2.8-1.6,2.8-3.6c0-1.7-0.9-3.5-2.8-3.5C76.3,215.8,75.4,217.5,75.4,219.4z"></path> <path d="M85.8,223.7V215H87l2.8,4.4c0.6,1,1.1,1.9,1.6,2.8l0,0c-0.1-1.2-0.1-2.2-0.1-3.6V215h1.1v8.7h-1.1l-2.8-4.4
 c-0.6-1-1.2-2-1.6-2.9l0,0c0.1,1.1,0.1,2.1,0.1,3.6v3.7H85.8z"></path> <path d="M101,219.6h-3.4v3.1h3.8v0.9h-4.9V215h4.7v0.9h-3.6v2.7h3.4V219.6z"></path> <path d="M107.7,222.4c0.3,0.2,1.1,0.5,1.9,0.5c1.5,0,1.9-0.9,1.9-1.6c0-1.2-1.1-1.7-2.2-1.7h-0.6v-0.8h0.6c0.8,0,1.9-0.4,1.9-1.4
 c0-0.7-0.4-1.3-1.5-1.3c-0.7,0-1.3,0.3-1.7,0.6l-0.3-0.8c0.4-0.3,1.3-0.6,2.2-0.6c1.6,0,2.4,1,2.4,2c0,0.9-0.5,1.6-1.5,2v0
 c1,0.2,1.9,1,1.9,2.1c0,1.3-1,2.5-3,2.5c-0.9,0-1.8-0.3-2.2-0.6L107.7,222.4z"></path> </g> <line class="st13" x1="231.5" y1="91.1" x2="704.2" y2="120.2"></line> <path class="st13" d="M394,165.4c26.2-2.8,47.2,6,65.4,17.4l213,132.7"></path> <path class="st13" d="M542.3,500.6c120.7,41,294.7-23.5,459.1-104.7"></path> </g> <g id="trap" class="st6"> <path class="st14" d="M359.2,81.6h-81.7c-18.2,0-33.2-14.9-33.2-33.2l0,0c0-18.2,14.9-33.2,33.2-33.2h81.7
 c18.2,0,33.2,14.9,33.2,33.2l0,0C392.4,66.7,377.5,81.6,359.2,81.6z"></path> <line class="st15" x1="318.4" y1="19" x2="318.4" y2="110.3"></line> <ellipse transform="matrix(0.7071 -0.7071 0.7071 0.7071 10.3014 259.5594)" class="st14" cx="318.5" cy="117.3" rx="8.5" ry="8.5"></ellipse> <g class="st12"> <path d="M298.2,44.4c0.5,0.3,1.2,0.6,2,0.6c1.1,0,1.8-0.6,1.8-1.5c0-0.8-0.5-1.3-1.6-1.7c-1.4-0.5-2.3-1.2-2.3-2.5
 c0-1.4,1.1-2.4,2.8-2.4c0.9,0,1.5,0.2,1.9,0.4l-0.3,0.9c-0.3-0.2-0.9-0.4-1.6-0.4c-1.2,0-1.6,0.7-1.6,1.3c0,0.8,0.5,1.2,1.7,1.7
 c1.5,0.6,2.2,1.3,2.2,2.5c0,1.3-1,2.5-3,2.5c-0.8,0-1.7-0.2-2.2-0.6L298.2,44.4z"></path> <path d="M307,37.2c0.5-0.1,1.2-0.2,2.1-0.2c1.1,0,1.9,0.3,2.4,0.7c0.5,0.4,0.8,1,0.8,1.8c0,0.8-0.2,1.4-0.7,1.9
 c-0.6,0.6-1.6,1-2.6,1c-0.3,0-0.6,0-0.9-0.1v3.5H307V37.2z M308.1,41.4c0.2,0.1,0.6,0.1,0.9,0.1c1.4,0,2.2-0.7,2.2-1.9
 c0-1.1-0.8-1.7-2-1.7c-0.5,0-0.9,0-1.1,0.1V41.4z"></path> <path d="M320.6,41.7h-3.4v3.1h3.8v0.9h-4.9v-8.7h4.7v0.9h-3.6v2.7h3.4V41.7z"></path> <path d="M329.2,41.7h-3.4v3.1h3.8v0.9h-4.9v-8.7h4.7v0.9h-3.6v2.7h3.4V41.7z"></path> <path d="M333.3,37.2c0.7-0.1,1.5-0.2,2.4-0.2c1.6,0,2.8,0.4,3.5,1.1c0.8,0.7,1.2,1.7,1.2,3.1c0,1.4-0.4,2.6-1.2,3.4
 c-0.8,0.8-2.1,1.2-3.8,1.2c-0.8,0-1.5,0-2-0.1V37.2z M334.4,44.9c0.3,0.1,0.7,0.1,1.1,0.1c2.4,0,3.7-1.3,3.7-3.7
 c0-2-1.1-3.3-3.5-3.3c-0.6,0-1,0.1-1.3,0.1V44.9z"></path> </g> <g class="st12"> <path d="M304.3,52.7h-2.6v-1h6.4v1h-2.6v7.7h-1.1V52.7z"></path> <path d="M311.3,51.9c0.6-0.1,1.4-0.2,2.1-0.2c1.2,0,2,0.2,2.5,0.7c0.4,0.4,0.7,1,0.7,1.6c0,1.1-0.7,1.9-1.6,2.2v0
 c0.7,0.2,1.1,0.8,1.3,1.7c0.3,1.2,0.5,2,0.7,2.4h-1.2c-0.1-0.2-0.3-1-0.6-2.1c-0.3-1.2-0.7-1.6-1.7-1.7h-1.1v3.8h-1.1V51.9z
 M312.4,55.8h1.1c1.2,0,2-0.7,2-1.6c0-1.1-0.8-1.6-2-1.6c-0.5,0-0.9,0.1-1.1,0.1V55.8z"></path> <path d="M322,57.7l-0.9,2.7h-1.2l2.9-8.7h1.4l3,8.7H326l-0.9-2.7H322z M324.8,56.8l-0.8-2.5c-0.2-0.6-0.3-1.1-0.5-1.6h0
 c-0.1,0.5-0.3,1-0.4,1.6l-0.8,2.5H324.8z"></path> <path d="M330.7,51.9c0.5-0.1,1.2-0.2,2.1-0.2c1.1,0,1.9,0.3,2.4,0.7c0.5,0.4,0.8,1,0.8,1.8c0,0.8-0.2,1.4-0.7,1.9
 c-0.6,0.6-1.6,1-2.6,1c-0.3,0-0.6,0-0.9-0.1v3.5h-1.1V51.9z M331.8,56.1c0.2,0.1,0.6,0.1,0.9,0.1c1.4,0,2.2-0.7,2.2-1.9
 c0-1.1-0.8-1.7-2-1.7c-0.5,0-0.9,0-1.1,0.1V56.1z"></path> </g> </g> </svg>