<svg width="32" height="32" viewBox="0 0 32 32" fill="none" xmlns="http://www.w3.org/2000/svg">
<g clip-path="url(#clip0_301_1142)">
<path fill-rule="evenodd" clip-rule="evenodd" d="M15.6094 8.39063C15.8593 8.64066 15.9998 8.97974 15.9998 9.33329C15.9998 9.68684 15.8593 10.0259 15.6094 10.276L9.88537 16L15.6094 21.724C15.8523 21.9754 15.9866 22.3122 15.9836 22.6618C15.9806 23.0114 15.8403 23.3458 15.5931 23.5931C15.3459 23.8403 15.0115 23.9805 14.6619 23.9835C14.3123 23.9866 13.9755 23.8522 13.724 23.6093L7.05737 16.9426C6.80741 16.6926 6.66699 16.3535 6.66699 16C6.66699 15.6464 6.80741 15.3073 7.05737 15.0573L13.724 8.39063C13.9741 8.14066 14.3132 8.00024 14.6667 8.00024C15.0203 8.00024 15.3593 8.14066 15.6094 8.39063ZM23.6094 8.39063C23.8593 8.64066 23.9998 8.97974 23.9998 9.33329C23.9998 9.68684 23.8593 10.0259 23.6094 10.276L17.8854 16L23.6094 21.724C23.8523 21.9754 23.9866 22.3122 23.9836 22.6618C23.9806 23.0114 23.8403 23.3458 23.5931 23.5931C23.3459 23.8403 23.0115 23.9805 22.6619 23.9835C22.3123 23.9866 21.9755 23.8522 21.724 23.6093L15.0574 16.9426C14.8074 16.6926 14.667 16.3535 14.667 16C14.667 15.6464 14.8074 15.3073 15.0574 15.0573L21.724 8.39063C21.9741 8.14066 22.3132 8.00024 22.6667 8.00024C23.0203 8.00024 23.3593 8.14066 23.6094 8.39063Z" fill="white"/>
</g>
<defs>
<clipPath id="clip0_301_1142">
<rect width="32" height="32" fill="white"/>
</clipPath>
</defs>
</svg>
